# This file uses centimeters as units for non-parametric coordinates.

mtllib copo_.mtl
g default
v -3.405223 2.955153 0.108834
v -3.187556 2.955153 0.108834
v -3.435751 3.582232 0.139362
v -3.157027 3.582232 0.139362
v -3.435751 3.582232 -0.139362
v -3.157027 3.582232 -0.139362
v -3.405223 2.955153 -0.108834
v -3.187556 2.955153 -0.108834
v -3.296389 3.581486 0.183301
v -3.296389 3.581486 -0.183301
v -3.296389 2.955960 -0.143147
v -3.296389 2.955960 0.143147
v -3.479690 3.581500 0.000000
v -3.439536 2.955724 0.000000
v -3.296389 2.956139 0.000000
v -3.153242 2.955724 0.000000
v -3.113089 3.581500 0.000000
v -3.410518 3.581315 0.114129
v -3.296389 3.582403 0.150112
v -3.446501 3.580716 0.000000
v -3.182260 3.581315 0.114129
v -3.146277 3.580716 0.000000
v -3.182260 3.581315 -0.114129
v -3.296389 3.582403 -0.150112
v -3.410518 3.581315 -0.114129
v -3.402437 3.121681 0.106048
v -3.296389 3.113974 0.139483
v -3.296389 3.121125 0.000000
v -3.435873 3.121125 0.000000
v -3.190341 3.121681 0.106048
v -3.156906 3.121125 0.000000
v -3.190341 3.121681 -0.106048
v -3.296389 3.113974 -0.139483
v -3.402437 3.121681 -0.106048
vt 0.375000 0.000000
vt 0.625000 0.000000
vt 0.375000 0.250000
vt 0.625000 0.250000
vt 0.375000 0.500000
vt 0.625000 0.500000
vt 0.375000 0.750000
vt 0.625000 0.750000
vt 0.375000 1.000000
vt 0.625000 1.000000
vt 0.875000 0.000000
vt 0.875000 0.250000
vt 0.125000 0.000000
vt 0.125000 0.250000
vt 0.500000 0.250000
vt 0.500000 0.500000
vt 0.500000 0.750000
vt 0.500000 0.000000
vt 0.500000 1.000000
vt 0.250000 0.250000
vt 0.375000 0.375000
vt 0.250000 0.000000
vt 0.375000 0.875000
vt 0.500000 0.875000
vt 0.625000 0.875000
vt 0.750000 0.000000
vt 0.625000 0.375000
vt 0.750000 0.250000
vt 0.500000 0.375000
vt 0.375000 0.250000
vt 0.500000 0.250000
vt 0.375000 0.375000
vt 0.625000 0.250000
vt 0.625000 0.375000
vt 0.625000 0.500000
vt 0.500000 0.500000
vt 0.375000 0.500000
vt 0.375000 0.250000
vt 0.500000 0.250000
vt 0.375000 0.375000
vt 0.625000 0.250000
vt 0.625000 0.375000
vt 0.625000 0.500000
vt 0.500000 0.500000
vt 0.375000 0.500000
vn -0.300117 -0.061031 0.951948
vn -0.300117 -0.061031 0.951948
vn -0.300117 -0.061031 0.951948
vn -0.300117 -0.061031 0.951948
vn 0.028238 0.999337 0.022992
vn 0.028238 0.999337 0.022992
vn 0.028238 0.999337 0.022992
vn 0.028238 0.999337 0.022992
vn -0.300117 -0.061031 -0.951948
vn -0.300117 -0.061031 -0.951948
vn -0.300117 -0.061031 -0.951948
vn -0.300117 -0.061031 -0.951948
vn 0.005356 -0.999979 -0.003708
vn 0.005356 -0.999979 -0.003708
vn 0.005356 -0.999979 -0.003708
vn 0.005356 -0.999979 -0.003708
vn 0.951933 -0.061019 0.300168
vn 0.951933 -0.061019 0.300168
vn 0.951933 -0.061019 0.300168
vn 0.951933 -0.061019 0.300168
vn -0.951933 -0.061019 0.300168
vn -0.951933 -0.061019 0.300168
vn -0.951933 -0.061019 0.300168
vn -0.951933 -0.061019 0.300168
vn -0.028238 0.999337 0.022992
vn -0.028238 0.999337 0.022992
vn -0.028238 0.999337 0.022992
vn -0.028238 0.999337 0.022992
vn 0.300117 -0.061031 -0.951948
vn 0.300117 -0.061031 -0.951948
vn 0.300117 -0.061031 -0.951948
vn 0.300117 -0.061031 -0.951948
vn -0.005356 -0.999979 -0.003708
vn -0.005356 -0.999979 -0.003708
vn -0.005356 -0.999979 -0.003708
vn -0.005356 -0.999979 -0.003708
vn 0.300117 -0.061031 0.951948
vn 0.300117 -0.061031 0.951948
vn 0.300117 -0.061031 0.951948
vn 0.300117 -0.061031 0.951948
vn -0.951933 -0.061019 -0.300168
vn -0.951933 -0.061019 -0.300168
vn -0.951933 -0.061019 -0.300168
vn -0.951933 -0.061019 -0.300168
vn 0.005356 -0.999979 0.003708
vn 0.005356 -0.999979 0.003708
vn 0.005356 -0.999979 0.003708
vn 0.005356 -0.999979 0.003708
vn -0.005356 -0.999979 0.003708
vn -0.005356 -0.999979 0.003708
vn -0.005356 -0.999979 0.003708
vn -0.005356 -0.999979 0.003708
vn 0.951933 -0.061019 -0.300168
vn 0.951933 -0.061019 -0.300168
vn 0.951933 -0.061019 -0.300168
vn 0.951933 -0.061019 -0.300168
vn -0.028238 0.999337 -0.022992
vn -0.028238 0.999337 -0.022992
vn -0.028238 0.999337 -0.022992
vn -0.028238 0.999337 -0.022992
vn 0.028238 0.999337 -0.022992
vn 0.028238 0.999337 -0.022992
vn 0.028238 0.999337 -0.022992
vn 0.028238 0.999337 -0.022992
vn -0.001188 0.999999 -0.000513
vn -0.001188 0.999999 -0.000513
vn -0.001188 0.999999 -0.000513
vn -0.001188 0.999999 -0.000513
vn 0.023629 0.999640 -0.012699
vn 0.023629 0.999640 -0.012699
vn 0.023629 0.999640 -0.012699
vn 0.023629 0.999640 -0.012699
vn 0.001188 0.999999 -0.000512
vn 0.001188 0.999999 -0.000512
vn 0.001188 0.999999 -0.000512
vn 0.001188 0.999999 -0.000512
vn -0.023629 0.999640 -0.012699
vn -0.023629 0.999640 -0.012699
vn -0.023629 0.999640 -0.012699
vn -0.023629 0.999640 -0.012699
vn -0.023629 0.999640 0.012699
vn -0.023629 0.999640 0.012699
vn -0.023629 0.999640 0.012699
vn -0.023629 0.999640 0.012699
vn 0.001188 0.999999 0.000513
vn 0.001188 0.999999 0.000513
vn 0.001188 0.999999 0.000513
vn 0.001188 0.999999 0.000513
vn -0.001188 0.999999 0.000512
vn -0.001188 0.999999 0.000512
vn -0.001188 0.999999 0.000512
vn -0.001188 0.999999 0.000512
vn 0.023629 0.999640 0.012699
vn 0.023629 0.999640 0.012699
vn 0.023629 0.999640 0.012699
vn 0.023629 0.999640 0.012699
vn 0.301217 0.021841 -0.953305
vn 0.301217 0.021841 -0.953305
vn 0.301217 0.021841 -0.953305
vn 0.301217 0.021841 -0.953305
vn 0.953456 0.022050 -0.300725
vn 0.953456 0.022050 -0.300725
vn 0.953456 0.022050 -0.300725
vn 0.953456 0.022050 -0.300725
vn -0.301217 0.021841 -0.953305
vn -0.301217 0.021841 -0.953305
vn -0.301217 0.021841 -0.953305
vn -0.301217 0.021841 -0.953305
vn -0.953456 0.022050 -0.300725
vn -0.953456 0.022050 -0.300725
vn -0.953456 0.022050 -0.300725
vn -0.953456 0.022050 -0.300725
vn -0.953456 0.022050 0.300725
vn -0.953456 0.022050 0.300725
vn -0.953456 0.022050 0.300725
vn -0.953456 0.022050 0.300725
vn -0.301217 0.021841 0.953305
vn -0.301217 0.021841 0.953305
vn -0.301217 0.021841 0.953305
vn -0.301217 0.021841 0.953305
vn 0.301217 0.021841 0.953305
vn 0.301217 0.021841 0.953305
vn 0.301217 0.021841 0.953305
vn 0.301217 0.021841 0.953305
vn 0.953456 0.022050 0.300725
vn 0.953456 0.022050 0.300725
vn 0.953456 0.022050 0.300725
vn 0.953456 0.022050 0.300725
s off
g pCube16
usemtl initialShadingGroup
f 1/1/1 12/18/2 9/15/3 3/3/4
f 26/38/5 27/39/6 28/29/7 29/40/8
f 5/5/9 10/16/10 11/17/11 7/7/12
f 14/23/13 15/24/14 12/19/15 1/9/16
f 2/2/17 16/26/18 17/28/19 4/4/20
f 14/22/21 1/1/22 3/3/23 13/20/24
f 27/39/25 30/41/26 31/42/27 28/29/28
f 11/17/29 10/16/30 6/6/31 8/8/32
f 12/19/33 15/24/34 16/25/35 2/10/36
f 9/15/37 12/18/38 2/2/39 4/4/40
f 7/13/41 14/22/42 13/20/43 5/14/44
f 7/7/45 11/17/46 15/24/47 14/23/48
f 16/25/49 15/24/50 11/17/51 8/8/52
f 17/28/53 16/26/54 8/11/55 6/12/56
f 28/29/57 31/42/58 32/43/59 33/44/60
f 29/40/61 28/29/62 33/44/63 34/45/64
f 3/3/65 9/15/66 19/31/67 18/30/68
f 13/21/69 3/3/70 18/30/71 20/32/72
f 9/15/73 4/4/74 21/33/75 19/31/76
f 4/4/77 17/27/78 22/34/79 21/33/80
f 17/27/81 6/6/82 23/35/83 22/34/84
f 6/6/85 10/16/86 24/36/87 23/35/88
f 10/16/89 5/5/90 25/37/91 24/36/92
f 5/5/93 13/21/94 20/32/95 25/37/96
f 18/30/97 19/31/98 27/39/99 26/38/100
f 20/32/101 18/30/102 26/38/103 29/40/104
f 19/31/105 21/33/106 30/41/107 27/39/108
f 21/33/109 22/34/110 31/42/111 30/41/112
f 22/34/113 23/35/114 32/43/115 31/42/116
f 23/35/117 24/36/118 33/44/119 32/43/120
f 24/36/121 25/37/122 34/45/123 33/44/124
f 25/37/125 20/32/126 29/40/127 34/45/128
