# This file uses centimeters as units for non-parametric coordinates.

mtllib pia.mtl
g default
v 7.130889 3.606007 -4.412167
v 9.575146 3.606007 -4.412167
v 7.130889 2.849978 -4.412167
v 9.575146 2.849978 -4.412167
v 7.391646 3.606007 -2.059515
v 9.314389 3.606007 -2.059515
v 9.314389 3.606007 -3.982258
v 7.391646 3.606007 -3.982258
v 7.391646 3.045487 -2.059515
v 9.314389 3.045487 -2.059515
v 9.314389 3.045487 -3.982258
v 7.391646 3.045487 -3.982258
v 7.130889 2.849978 -2.106088
v 7.269065 2.849978 -1.967912
v 7.261255 3.606007 -2.013709
v 7.130889 3.606007 -2.106088
v 7.269065 3.606007 -1.967912
v 9.575146 2.849978 -2.106088
v 9.436968 2.849978 -1.967912
v 9.444780 3.606007 -2.013709
v 9.436968 3.606007 -1.967912
v 9.575146 3.606007 -2.106088
v 7.817286 3.606007 -4.291440
v 8.888749 3.606007 -4.291440
v 7.931590 3.606007 -4.102985
v 8.774443 3.606007 -4.102985
v 8.205904 3.639828 -4.291440
v 8.500132 3.639828 -4.291440
v 8.183703 3.639828 -4.102985
v 8.522332 3.639828 -4.102985
v 8.205904 4.063921 -4.225604
v 8.500132 4.063921 -4.225604
v 8.183703 4.132109 -4.102985
v 8.522332 4.132109 -4.102985
v 8.205904 3.945927 -4.291440
v 8.183703 3.945927 -4.102985
v 8.522332 3.945927 -4.102985
v 8.500132 3.945927 -4.291440
v 8.183703 3.945927 -3.827413
v 8.522332 3.945927 -3.827413
v 8.522332 4.132109 -3.888547
v 8.183703 4.132109 -3.888547
v 8.183703 3.945927 -3.653693
v 8.522332 3.945927 -3.653693
v 8.522332 4.061570 -3.768907
v 8.183703 4.061570 -3.768907
v 8.364647 4.185122 -4.225604
v 8.500132 4.219150 -4.225604
v 8.342446 4.253309 -4.102985
v 8.522332 4.287338 -4.102985
v 8.994994 4.102689 -4.225604
v 9.017194 4.132470 -4.102985
v 8.994994 4.170485 -4.225604
v 9.017194 4.200266 -4.102985
vt 0.625000 0.500000
vt 0.375000 0.750000
vt 0.625000 0.500000
vt 0.375000 0.500000
vt 0.375000 0.250000
vt 0.625000 0.250000
vt 0.625000 0.500000
vt 0.375000 0.500000
vt 0.375000 0.500000
vt 0.375000 0.264133
vt 0.625000 0.750000
vt 0.625000 0.985867
vt 0.610867 1.000000
vt 0.389133 1.000000
vt 0.375000 0.985867
vt 0.375000 0.250000
vt 0.375000 0.250000
vt 0.625000 0.250000
vt 0.625000 0.264133
vt 0.625000 0.250000
vt 0.125000 0.000000
vt 0.360867 0.000000
vt 0.360867 0.250000
vt 0.125000 0.250000
vt 0.610867 0.000000
vt 0.639133 0.250000
vt 0.639133 -0.000000
vt 0.875000 0.000000
vt 0.875000 0.250000
vt 0.375000 0.000000
vt 0.389133 0.000000
vt 0.389133 0.250000
vt 0.625000 0.000000
vt 0.625000 0.250000
vt 0.388334 0.250000
vt 0.375000 0.250000
vt 0.611666 0.250000
vt 0.610867 0.250000
vt 0.625000 0.500000
vt 0.375000 0.500000
vt 0.375000 0.500000
vt 0.625000 0.500000
vt 0.625000 0.500000
vt 0.375000 0.500000
vt 0.375000 0.500000
vt 0.625000 0.500000
vt 0.625000 0.500000
vt 0.375000 0.500000
vt 0.375000 0.500000
vt 0.625000 0.500000
vt 0.375000 0.500000
vt 0.375000 0.500000
vt 0.625000 0.500000
vt 0.625000 0.500000
vt 0.375000 0.500000
vt 0.625000 0.500000
vt 0.625000 0.500000
vt 0.375000 0.500000
vt 0.375000 0.500000
vt 0.625000 0.500000
vt 0.625000 0.500000
vt 0.375000 0.500000
vt 0.625000 0.500000
vt 0.375000 0.500000
vt 0.375000 0.500000
vt 0.625000 0.500000
vt 0.625000 0.500000
vt 0.625000 0.500000
vt 0.625000 0.500000
vt 0.625000 0.500000
vn 0.000000 0.000000 1.000000
vn 0.000000 0.000000 1.000000
vn 0.000000 0.000000 1.000000
vn 0.000000 0.000000 1.000000
vn 0.000000 1.000000 0.000000
vn 0.000000 1.000000 0.000000
vn 0.000000 1.000000 0.000000
vn 0.000000 1.000000 0.000000
vn 0.000000 0.000000 -1.000000
vn 0.000000 0.000000 -1.000000
vn 0.000000 0.000000 -1.000000
vn 0.000000 0.000000 -1.000000
vn 0.000000 -1.000000 -0.000000
vn 0.000000 -1.000000 -0.000000
vn 0.000000 -1.000000 -0.000000
vn 0.000000 -1.000000 -0.000000
vn 0.000000 -1.000000 -0.000000
vn 0.000000 -1.000000 -0.000000
vn 1.000000 0.000000 0.000000
vn 1.000000 0.000000 0.000000
vn 1.000000 0.000000 0.000000
vn 1.000000 0.000000 0.000000
vn -1.000000 0.000000 0.000000
vn -1.000000 0.000000 0.000000
vn -1.000000 0.000000 0.000000
vn -1.000000 0.000000 0.000000
vn -0.185332 0.858816 -0.477584
vn -0.185332 0.858816 -0.477584
vn -0.185332 0.858816 -0.477584
vn -0.185332 0.858816 -0.477584
vn 0.000000 1.000000 0.000000
vn 0.000000 1.000000 0.000000
vn 0.000000 1.000000 -0.000000
vn 0.000000 1.000000 0.000000
vn 0.000000 1.000000 0.000000
vn 0.000000 0.000000 -1.000000
vn 0.000000 0.000000 -1.000000
vn 0.000000 0.000000 -1.000000
vn 0.000000 0.000000 -1.000000
vn -1.000000 0.000000 0.000000
vn -1.000000 0.000000 0.000000
vn -1.000000 0.000000 0.000000
vn -1.000000 0.000000 0.000000
vn 0.000000 0.000000 1.000000
vn 0.000000 0.000000 1.000000
vn 0.000000 0.000000 1.000000
vn 0.000000 0.000000 1.000000
vn 1.000000 0.000000 0.000000
vn 1.000000 0.000000 0.000000
vn 1.000000 0.000000 0.000000
vn 1.000000 0.000000 0.000000
vn 0.000000 1.000000 -0.000000
vn 0.000000 1.000000 -0.000000
vn 0.000000 1.000000 -0.000000
vn 0.000000 1.000000 -0.000000
vn 0.000000 1.000000 -0.000000
vn 0.000000 1.000000 0.000000
vn 0.000000 1.000000 0.000000
vn 0.000000 1.000000 0.000000
vn 0.000000 1.000000 0.000000
vn -0.707107 0.000000 0.707106
vn -0.707107 0.000000 0.707106
vn -0.707107 0.000000 0.707106
vn -0.707107 0.000000 0.707106
vn 0.707101 0.000000 0.707112
vn 0.707101 0.000000 0.707112
vn 0.707101 0.000000 0.707112
vn 0.707101 0.000000 0.707112
vn 0.000000 1.000000 -0.000000
vn 0.000000 1.000000 -0.000000
vn 0.000000 1.000000 -0.000000
vn 0.000000 1.000000 -0.000000
vn 0.000000 1.000000 0.000000
vn 0.000000 1.000000 0.000000
vn 0.000000 1.000000 0.000000
vn 0.000000 1.000000 0.000000
vn 0.000000 1.000000 0.000000
vn 0.000000 1.000000 0.000000
vn 0.000000 1.000000 0.000000
vn 0.000000 1.000000 0.000000
vn 0.000000 1.000000 0.000000
vn 0.000000 1.000000 0.000000
vn 0.000000 1.000000 0.000000
vn 0.000000 1.000000 0.000000
vn 0.000000 0.000000 -1.000000
vn 0.000000 0.000000 -1.000000
vn 0.000000 0.000000 -1.000000
vn 0.000000 0.000000 -1.000000
vn -0.104952 0.994147 0.025646
vn -0.104952 0.994147 0.025646
vn -0.104952 0.994147 0.025646
vn -0.104952 0.994147 0.025646
vn 0.000000 0.000000 1.000000
vn 0.000000 0.000000 1.000000
vn 0.000000 0.000000 1.000000
vn 0.000000 0.000000 1.000000
vn 0.104952 0.994147 0.025647
vn 0.104952 0.994147 0.025647
vn 0.104952 0.994147 0.025647
vn 0.104952 0.994147 0.025647
vn 0.000000 0.487246 -0.873265
vn 0.000000 0.487246 -0.873265
vn 0.000000 0.487246 -0.873265
vn 0.000000 0.487246 -0.873265
vn -0.988450 0.032059 -0.148118
vn -0.988450 0.032059 -0.148118
vn -0.988450 0.032059 -0.148118
vn -0.988450 0.032059 -0.148118
vn 0.000000 0.705790 0.708421
vn 0.000000 0.705790 0.708421
vn 0.000000 0.705790 0.708421
vn 0.000000 0.705790 0.708421
vn 0.988451 0.032058 -0.148114
vn 0.988451 0.032058 -0.148114
vn 0.988451 0.032058 -0.148114
vn 0.988451 0.032058 -0.148114
vn -0.993132 0.000000 -0.116998
vn -0.993132 0.000000 -0.116998
vn -0.993132 0.000000 -0.116998
vn -0.993132 0.000000 -0.116998
vn 0.000000 0.000000 1.000000
vn 0.000000 0.000000 1.000000
vn 0.000000 0.000000 1.000000
vn 0.000000 0.000000 1.000000
vn 0.993133 0.000000 -0.116994
vn 0.993133 0.000000 -0.116994
vn 0.993133 0.000000 -0.116994
vn 0.993133 0.000000 -0.116994
vn 0.000000 0.000000 -1.000000
vn 0.000000 0.000000 -1.000000
vn 0.000000 0.000000 -1.000000
vn 0.000000 0.000000 -1.000000
vn 0.000000 -1.000000 0.000000
vn 0.000000 -1.000000 0.000000
vn 0.000000 -1.000000 0.000000
vn 0.000000 -1.000000 0.000000
vn 1.000000 -0.000000 0.000000
vn 1.000000 -0.000000 0.000000
vn 1.000000 -0.000000 0.000000
vn 1.000000 -0.000000 0.000000
vn 0.000000 1.000000 0.000000
vn 0.000000 1.000000 0.000000
vn 0.000000 1.000000 0.000000
vn 0.000000 1.000000 0.000000
vn -1.000000 0.000000 0.000000
vn -1.000000 0.000000 0.000000
vn -1.000000 0.000000 0.000000
vn -1.000000 0.000000 0.000000
vn 0.000000 -1.000000 0.000000
vn 0.000000 -1.000000 0.000000
vn 0.000000 -1.000000 0.000000
vn 0.000000 -1.000000 0.000000
vn 1.000000 0.000000 0.000000
vn 1.000000 0.000000 0.000000
vn 1.000000 0.000000 0.000000
vn 1.000000 0.000000 0.000000
vn 0.000000 0.861422 0.507891
vn 0.000000 0.861422 0.507891
vn 0.000000 0.861422 0.507891
vn 0.000000 0.861422 0.507891
vn -1.000000 0.000000 0.000000
vn -1.000000 0.000000 0.000000
vn -1.000000 0.000000 0.000000
vn -1.000000 0.000000 0.000000
vn 0.000000 0.000000 -1.000000
vn 0.000000 0.000000 -1.000000
vn 0.000000 0.000000 -1.000000
vn 0.000000 0.000000 -1.000000
vn -0.531307 0.695884 -0.483176
vn -0.531307 0.695884 -0.483176
vn -0.531307 0.695884 -0.483176
vn -0.531307 0.695884 -0.483176
vn -0.000000 0.000000 1.000000
vn -0.000000 0.000000 1.000000
vn -0.000000 0.000000 1.000000
vn -0.000000 0.000000 1.000000
vn 0.984002 0.000000 -0.178158
vn 0.984002 0.000000 -0.178158
vn 0.984002 0.000000 -0.178158
vn 0.984002 0.000000 -0.178158
vn 0.036778 -0.930289 0.364979
vn 0.036778 -0.930289 0.364979
vn 0.036778 -0.930289 0.364979
vn 0.036778 -0.930289 0.364979
vn -0.000000 0.000000 -1.000000
vn -0.000000 0.000000 -1.000000
vn -0.000000 0.000000 -1.000000
vn -0.000000 0.000000 -1.000000
vn 0.125257 0.913308 -0.387531
vn 0.125257 0.913308 -0.387531
vn 0.125257 0.913308 -0.387531
vn 0.125257 0.913308 -0.387531
vn 0.000000 0.000000 1.000000
vn 0.000000 0.000000 1.000000
vn 0.000000 0.000000 1.000000
vn 0.000000 0.000000 1.000000
s off
g pCube5
usemtl initialShadingGroup
f 17/32/1 14/31/2 19/25/3 21/38/4
f 9/5/5 10/6/6 11/7/7 12/8/8
f 1/9/9 2/1/10 4/11/11 3/2/12
f 3/2/13 4/11/14 18/12/15 19/13/16 14/14/17 13/15/18
f 22/26/19 18/27/20 4/28/21 2/29/22
f 3/21/23 13/22/24 16/23/25 1/24/26
usemtl blinn2SG
f 48/63/27 47/64/28 49/65/29 50/66/30
s 1
usemtl initialShadingGroup
f 1/9/31 16/10/32 15/16/33 5/17/34 8/4/35
s off
f 5/17/36 6/20/37 10/6/38 9/5/39
f 6/20/40 7/3/41 11/7/42 10/6/43
f 7/3/44 8/4/45 12/8/46 11/7/47
f 8/4/48 5/17/49 9/5/50 12/8/51
s 1
f 15/16/33 17/32/52 21/38/53 20/18/54 6/20/55 5/17/56
f 20/18/54 22/19/57 2/1/58 7/3/59 6/20/60
s off
f 13/30/61 14/31/62 17/32/63 16/36/64
f 19/25/65 18/33/66 22/34/67 21/38/68
s 1
f 15/35/33 16/36/32 17/32/52
f 20/37/54 21/38/53 22/34/57
s off
f 2/1/69 1/9/70 23/40/71 24/39/72
f 1/9/73 8/4/74 25/41/75 23/40/76
f 8/4/77 7/3/78 26/42/79 25/41/80
f 7/3/81 2/1/82 24/39/83 26/42/84
f 24/39/85 23/40/86 27/44/87 28/43/88
f 23/40/89 25/41/90 29/45/91 27/44/92
f 25/41/93 26/42/94 30/46/95 29/45/96
f 26/42/97 24/39/98 28/43/99 30/46/100
usemtl blinn2SG
f 38/54/101 35/51/102 31/48/103 32/47/104
f 35/51/105 36/52/106 33/49/107 31/48/108
f 43/59/109 44/60/110 45/61/111 46/62/112
f 37/53/113 38/54/114 32/47/115 34/50/116
f 27/44/117 29/45/118 36/52/119 35/51/120
f 29/45/121 30/46/122 37/53/123 36/52/124
f 30/46/125 28/43/126 38/54/127 37/53/128
f 28/43/129 27/44/130 35/51/131 38/54/132
f 36/52/133 37/53/134 40/56/135 39/55/136
f 37/53/137 34/50/138 41/57/139 40/56/140
f 34/50/141 33/49/142 42/58/143 41/57/144
f 33/49/145 36/52/146 39/55/147 42/58/148
f 39/55/149 40/56/150 44/60/151 43/59/152
f 40/56/153 41/57/154 45/61/155 44/60/156
f 41/57/157 42/58/158 46/62/159 45/61/160
f 42/58/161 39/55/162 43/59/163 46/62/164
f 32/47/165 31/48/166 47/64/167 48/63/168
f 31/48/169 33/49/170 49/65/171 47/64/172
f 33/49/173 34/50/174 50/66/175 49/65/176
f 52/67/177 51/68/178 53/69/179 54/70/180
f 34/50/181 32/47/182 51/68/183 52/67/184
f 32/47/185 48/63/186 53/69/187 51/68/188
f 48/63/189 50/66/190 54/70/191 53/69/192
f 50/66/193 34/50/194 52/67/195 54/70/196
