# This file uses centimeters as units for non-parametric coordinates.
# UVs by headus UVLayout v2.08.00 2012/05/02 06:40:44

mtllib shield.mtl
g default
v 25.355564 6.152235 0.112966
v 27.771167 6.152235 0.112966
v 24.688370 8.994377 0.112966
v 28.438359 8.994377 0.112966
v 24.688370 8.994377 -0.112966
v 28.438359 8.994377 -0.112966
v 25.355564 6.152235 -0.112966
v 27.771167 6.152235 -0.112966
v 26.563364 9.505237 0.254672
v 26.563364 9.505237 0.028740
v 26.563364 5.018136 -0.108385
v 26.563364 5.018136 0.158282
v 24.966950 7.259134 0.112966
v 24.966950 7.259134 -0.112966
v 26.563364 7.259134 0.028740
v 28.159779 7.259134 -0.112966
v 28.159779 7.259134 0.112966
v 25.355564 6.152235 0.112966
v 26.563364 5.018136 0.221545
v 26.563364 7.259134 0.543734
v 24.966950 7.259134 0.112966
v 27.771167 6.152235 0.112966
v 28.159779 7.259134 0.112966
v 26.563364 9.505237 0.543734
v 28.438359 8.994377 0.112966
v 24.688370 8.994377 0.112966
v 27.475126 9.255122 -0.112966
v 27.361572 7.259134 -0.112966
v 27.126352 5.384387 -0.112966
v 27.126352 5.384387 0.122057
v 27.126352 5.384387 0.237076
v 27.361572 7.259134 0.402028
v 27.475126 9.355950 0.402028
v 27.475126 9.255122 0.112966
v 25.765157 7.259134 0.402028
v 25.651602 9.355950 0.402028
v 25.651602 9.355950 0.112966
v 25.651602 9.355950 -0.112966
v 25.765157 7.259134 -0.112966
v 26.000378 5.384387 -0.112966
v 26.000378 5.384387 0.122057
v 26.000378 5.384387 0.237076
# 71 texture coords
vt 0.342582 0.623405
vt 0.471142 0.621901
vt 0.214020 0.621871
vt 0.491187 0.957329
vt 0.342539 0.982228
vt 0.193896 0.957294
vt 0.342623 0.261763
vt 0.433776 0.320733
vt 0.606525 0.618918
vt 0.651904 0.897454
vt 0.251457 0.320712
vt 0.033194 0.897382
vt 0.078639 0.618857
vt 0.542140 0.441572
vt 0.143065 0.441526
vt 0.090917 0.164880
vt 0.145655 0.163598
vt 0.200393 0.162102
vt 0.149562 0.317618
vt 0.086601 0.301946
vt 0.103786 0.035916
vt 0.141757 0.009825
vt 0.211828 0.305689
vt 0.020093 0.285742
vt 0.036179 0.166269
vt 0.181001 0.033957
vt 0.060903 0.089690
vt 0.277253 0.279219
vt 0.255131 0.160715
vt 0.226556 0.085488
vt 0.908801 0.091817
vt 0.843316 0.058712
vt 0.752204 0.066428
vt 0.796354 0.203852
vt 0.662984 0.219046
vt 0.528720 0.201081
vt 0.433239 0.091078
vt 0.501904 0.058841
vt 0.598302 0.065735
vt 0.676956 0.073017
vt 0.676956 0.034967
vt 0.593571 0.045328
vt 0.496945 0.068789
vt 0.593571 0.095275
vt 0.676956 0.082045
vt 0.436635 0.102977
vt 0.496945 0.101026
vt 0.390364 0.156804
vt 0.390364 0.189043
vt 0.436635 0.135217
vt 0.390364 0.189043
vt 0.529844 0.242206
vt 0.390364 0.156804
vt 0.530168 0.165582
vt 0.662491 0.267701
vt 0.662491 0.194216
vt 0.796100 0.243460
vt 0.796100 0.169975
vt 0.937910 0.191618
vt 0.937910 0.159381
vt 0.937910 0.191618
vt 0.902827 0.137411
vt 0.937910 0.159381
vt 0.902827 0.105173
vt 0.849653 0.102687
vt 0.849653 0.070450
vt 0.757976 0.096050
vt 0.757976 0.046103
vt 0.676956 0.073017
vt 0.676956 0.082045
vt 0.676956 0.034967
vn -0.332341 -0.121279 0.935329
vn -0.332341 -0.121279 0.935329
vn -0.332341 -0.121279 0.935329
vn -0.332341 -0.121279 0.935329
vn -0.351431 0.936214 0.000000
vn -0.351431 0.936214 0.000000
vn -0.351431 0.936214 0.000000
vn -0.351431 0.936214 0.000000
vn 0.000000 0.000000 -1.000000
vn 0.000000 0.000000 -1.000000
vn 0.000000 0.000000 -1.000000
vn 0.000000 0.000000 -1.000000
vn -0.765793 -0.643088 0.000000
vn -0.765793 -0.643088 0.000000
vn -0.765792 -0.643088 0.000000
vn -0.765793 -0.643088 0.000000
vn 0.943540 -0.331259 0.000000
vn 0.943540 -0.331259 0.000000
vn 0.943540 -0.331259 0.000000
vn 0.943540 -0.331259 0.000000
vn -0.943539 -0.331261 0.000000
vn -0.943539 -0.331261 0.000000
vn -0.943539 -0.331261 0.000000
vn -0.943539 -0.331261 0.000000
vn 0.264547 0.964373 0.000000
vn 0.264547 0.964373 0.000000
vn 0.264547 0.964373 0.000000
vn 0.264547 0.964373 0.000000
vn -0.117342 0.039766 -0.992295
vn -0.117342 0.039766 -0.992295
vn -0.117342 0.039766 -0.992295
vn -0.117342 0.039766 -0.992295
vn 0.545312 -0.838233 0.000000
vn 0.545312 -0.838233 0.000000
vn 0.545312 -0.838233 0.000000
vn 0.545312 -0.838233 0.000000
vn 0.124523 -0.123640 0.984483
vn 0.124523 -0.123640 0.984483
vn 0.124523 -0.123640 0.984483
vn 0.124523 -0.123640 0.984483
vn -0.987357 -0.158512 0.000000
vn -0.987357 -0.158512 0.000000
vn -0.987357 -0.158512 0.000000
vn -0.987357 -0.158512 0.000000
vn 0.000000 0.000000 -1.000000
vn 0.000000 0.000000 -1.000000
vn 0.000000 0.000000 -1.000000
vn 0.000000 0.000000 -1.000000
vn -0.162888 0.004360 -0.986635
vn -0.162888 0.004360 -0.986635
vn -0.162888 0.004360 -0.986635
vn -0.162888 0.004360 -0.986635
vn 0.987357 -0.158512 0.000000
vn 0.987357 -0.158512 0.000000
vn 0.987357 -0.158512 0.000000
vn 0.987357 -0.158512 0.000000
vn 0.163146 -0.004266 0.986593
vn 0.163146 -0.004266 0.986593
vn 0.163146 -0.004266 0.986593
vn 0.163146 -0.004266 0.986593
vn -0.305885 -0.031301 0.951554
vn -0.305885 -0.031301 0.951554
vn -0.305885 -0.031301 0.951554
vn -0.305885 -0.031301 0.951554
vn -0.765792 -0.643088 -0.000002
vn -0.765792 -0.643088 -0.000002
vn -0.765792 -0.643088 -0.000002
vn -0.765792 -0.643088 -0.000002
vn 0.000000 0.000000 -0.000000
vn 0.000000 0.000000 -1.000000
vn 0.000000 0.000000 -1.000000
vn 0.000000 0.000000 -0.000000
vn 0.545312 -0.838233 0.000000
vn 0.545312 -0.838233 0.000000
vn 0.545312 -0.838233 0.000000
vn 0.545312 -0.838233 0.000000
vn 0.000000 0.000000 0.000000
vn 0.000000 0.000000 0.000000
vn 0.000000 0.000000 0.000000
vn 0.000000 0.000000 0.000000
vn 0.000000 0.000000 0.000000
vn 0.000000 0.000000 0.000000
vn 0.000000 0.000000 0.000000
vn 0.000000 0.000000 0.000000
vn 0.185776 0.967981 -0.168822
vn 0.185776 0.967981 -0.168822
vn 0.185776 0.967981 -0.168822
vn 0.185776 0.967981 -0.168822
vn 0.000000 0.000000 0.000000
vn 0.000000 0.000000 0.000000
vn 0.000000 0.000000 0.000000
vn 0.000000 0.000000 0.000000
vn 0.000000 0.000000 -1.000000
vn 0.000000 0.000000 -1.000000
vn 0.000000 0.000000 -1.000000
vn 0.000000 0.000000 -1.000000
vn 0.000000 0.000000 -1.000000
vn 0.000000 0.000000 -1.000000
vn 0.000000 0.000000 -1.000000
vn 0.000000 0.000000 -1.000000
vn 0.765792 -0.643089 0.000000
vn 0.765792 -0.643089 0.000000
vn 0.765792 -0.643089 0.000000
vn 0.765792 -0.643089 0.000000
vn 0.765792 -0.643089 0.000000
vn 0.765792 -0.643089 0.000000
vn 0.000000 -0.000000 0.000000
vn 0.000000 -0.000000 0.000000
vn 0.332341 -0.121278 0.935329
vn 0.332341 -0.121278 0.935330
vn 0.332341 -0.121278 0.935329
vn 0.332341 -0.121278 0.935330
vn 0.305885 -0.031301 0.951554
vn 0.305885 -0.031301 0.951554
vn 0.305885 -0.031301 0.951554
vn 0.305885 -0.031301 0.951554
vn 0.261294 0.965259 0.000000
vn 0.261294 0.965259 0.000000
vn 0.261294 0.965259 0.000000
vn 0.261294 0.965259 0.000000
vn -0.163146 -0.004266 0.986593
vn -0.163146 -0.004266 0.986593
vn -0.163146 -0.004266 0.986593
vn -0.163146 -0.004266 0.986593
vn -0.161582 0.986859 0.000000
vn -0.161582 0.986859 0.000000
vn -0.161582 0.986859 0.000000
vn -0.161582 0.986859 0.000000
vn -0.161582 0.986859 0.000000
vn -0.161582 0.986859 0.000000
vn -0.161582 0.986859 0.000000
vn -0.161582 0.986859 0.000000
vn 0.163146 0.004266 -0.986593
vn 0.163146 0.004266 -0.986593
vn 0.163146 0.004266 -0.986593
vn 0.163146 0.004266 -0.986593
vn 0.117342 0.039767 -0.992295
vn 0.117342 0.039767 -0.992295
vn 0.117342 0.039767 -0.992295
vn 0.117342 0.039767 -0.992295
vn -0.545313 -0.838233 0.000000
vn -0.545313 -0.838233 0.000000
vn -0.545313 -0.838233 0.000000
vn -0.545313 -0.838233 0.000000
vn -0.545313 -0.838233 0.000002
vn -0.545313 -0.838232 0.000002
vn -0.545313 -0.838233 0.000002
vn -0.545313 -0.838233 0.000002
vn -0.124523 -0.123640 0.984483
vn -0.124523 -0.123640 0.984483
vn -0.124523 -0.123640 0.984483
vn -0.124523 -0.123640 0.984483
vn -0.351431 0.936214 0.000000
vn -0.000000 0.000000 0.000000
vn -0.000000 0.000000 0.000000
vn -0.351432 0.936214 0.000000
vn 0.000000 0.000000 -0.000000
vn 0.000000 0.000000 -0.000000
vn 0.247634 0.914798 -0.319094
vn 0.247634 0.914798 -0.319094
s off
g pCube9
usemtl initialShadingGroup
f 18/15/1 42/11/2 35/3/3 21/13/4
f 3/61/5 37/34/6 38/58/7 5/60/8
f 14/29/9 39/18/10 40/26/11 7/30/12
f 7/66/13 40/68/14 41/33/15 1/32/16
f 2/38/17 8/43/18 16/46/19 17/37/20
f 7/66/21 1/32/22 13/31/23 14/64/24
f 9/35/25 34/36/26 27/54/27 10/56/28
f 11/22/29 15/17/30 28/16/31 29/21/32
f 12/40/33 11/41/34 29/42/35 30/39/36
f 20/1/37 19/7/38 31/8/39 32/2/40
f 14/64/41 13/31/42 3/61/43 5/63/44
f 5/28/45 38/23/46 39/18/47 14/29/48
f 28/16/49 15/17/50 10/19/51 27/20/52
f 17/37/53 16/46/54 6/48/55 4/49/56
f 24/5/57 20/1/58 32/2/59 33/4/60
f 21/13/61 35/3/62 36/6/63 26/12/64
f 1/32/65 41/33/66 42/67/67 18/65/68
f 13/31/69 1/32/70 18/65/71 21/62/72
f 12/40/73 30/39/74 31/44/75 19/45/76
f 2/38/77 17/37/78 23/50/79 22/47/80
f 17/37/81 4/49/82 25/51/83 23/50/84
f 34/36/85 9/35/86 24/55/87 33/52/88
f 3/61/89 13/31/90 21/62/91 26/59/92
f 16/25/93 28/16/94 27/20/95 6/24/96
f 29/21/97 28/16/98 16/25/99 8/27/100
f 30/39/101 29/42/102 8/43/103 2/38/104
f 31/44/105 30/39/106 2/38/107 22/47/108
f 32/2/109 31/8/110 22/14/111 23/9/112
f 33/4/113 32/2/114 23/9/115 25/10/116
f 27/54/117 34/36/118 4/49/119 6/53/120
f 35/3/121 20/1/122 24/5/123 36/6/124
f 9/35/125 37/34/126 36/57/127 24/55/128
f 38/58/129 37/34/130 9/35/131 10/56/132
f 39/18/133 38/23/134 10/19/135 15/17/136
f 40/26/137 39/18/138 15/17/139 11/22/140
f 41/33/141 40/68/142 11/71/143 12/69/144
f 42/67/145 41/33/146 12/69/147 19/70/148
f 35/3/149 42/11/150 19/7/151 20/1/152
f 37/34/153 3/61/154 26/59/155 36/57/156
f 25/51/157 4/49/158 34/36/159 33/52/160
